<svg data-v-d2925f45="" width="24" height="24" class="blu-icon icons-section__icon__image" aria-hidden="true" type="image/svg+xml" viewBox="0 0 24 24" fill="currentColor" xmlns="http://www.w3.org/2000/svg"><path d="M20.1057 2C20.7751 2 21.3147 2.57143 21.2048 3.24311C20.0157 10.1303 20.0157 14.411 21.7544 20.6466C21.9642 21.3484 21.4246 22 20.7252 22H3.27906C2.56962 22 2.03005 21.3484 2.24988 20.6466C3.9785 14.411 3.9785 10.1303 2.78945 3.24311C2.68953 2.57143 3.2291 2 3.88857 2H3.9785C7.47572 2.3609 9.74392 2.53133 11.9921 2.53133C14.2403 2.53133 16.4985 2.35088 20.0157 2H20.1057ZM9.13455 6.91993C9.13455 6.39862 8.7049 5.95752 8.15533 5.95752C7.60577 5.95752 7.22607 6.3886 7.22607 6.91993C7.22607 7.45125 7.60577 7.88233 8.15533 7.88233C8.7049 7.88233 9.13455 7.42118 9.13455 6.91993ZM17.0659 6.96241C17.0659 6.4411 16.6362 6 16.0866 6C15.5371 6 15.1574 6.43108 15.1574 6.96241C15.1574 7.49373 15.5371 7.92481 16.0866 7.92481C16.6362 7.92481 17.0659 7.46366 17.0659 6.96241ZM12.0023 14.9799C14.6402 14.9799 16.7785 12.7343 16.7785 9.96741C16.7785 9.56641 16.4587 9.24561 16.069 9.24561C15.6793 9.24561 15.3596 9.56641 15.3596 9.96741C15.3596 11.9323 13.8508 13.5263 12.0023 13.5263C10.1537 13.5263 8.64494 11.9323 8.64494 9.96741C8.64494 9.56641 8.3252 9.24561 7.93551 9.24561C7.54582 9.24561 7.22607 9.56641 7.22607 9.96741C7.22607 12.7343 9.37436 14.9799 12.0023 14.9799Z"></path></svg>