<!-- <svg data-v-d2925f45="" width="24" height="24" class="blu-icon icons-section__icon__image" aria-hidden="true" type="image/svg+xml" viewBox="0 0 24 24" fill="currentColor" xmlns="http://www.w3.org/2000/svg"><path d="M20.1057 2C20.7751 2 21.3147 2.57143 21.2048 3.24311C20.0157 10.1303 20.0157 14.411 21.7544 20.6466C21.9642 21.3484 21.4246 22 20.7252 22H3.27906C2.56962 22 2.03005 21.3484 2.24988 20.6466C3.9785 14.411 3.9785 10.1303 2.78945 3.24311C2.68953 2.57143 3.2291 2 3.88857 2H3.9785C7.47572 2.3609 9.74392 2.53133 11.9921 2.53133C14.2403 2.53133 16.4985 2.35088 20.0157 2H20.1057ZM9.13455 6.91993C9.13455 6.39862 8.7049 5.95752 8.15533 5.95752C7.60577 5.95752 7.22607 6.3886 7.22607 6.91993C7.22607 7.45125 7.60577 7.88233 8.15533 7.88233C8.7049 7.88233 9.13455 7.42118 9.13455 6.91993ZM17.0659 6.96241C17.0659 6.4411 16.6362 6 16.0866 6C15.5371 6 15.1574 6.43108 15.1574 6.96241C15.1574 7.49373 15.5371 7.92481 16.0866 7.92481C16.6362 7.92481 17.0659 7.46366 17.0659 6.96241ZM12.0023 14.9799C14.6402 14.9799 16.7785 12.7343 16.7785 9.96741C16.7785 9.56641 16.4587 9.24561 16.069 9.24561C15.6793 9.24561 15.3596 9.56641 15.3596 9.96741C15.3596 11.9323 13.8508 13.5263 12.0023 13.5263C10.1537 13.5263 8.64494 11.9323 8.64494 9.96741C8.64494 9.56641 8.3252 9.24561 7.93551 9.24561C7.54582 9.24561 7.22607 9.56641 7.22607 9.96741C7.22607 12.7343 9.37436 14.9799 12.0023 14.9799Z"></path></svg>-->
<svg data-v-8849594e="" xmlns="http://www.w3.org/2000/svg" fill="currentColor" preserveAspectRatio="xMidYMid meet" width="24" height="24" viewBox="0 0 24 24" class="icon-gray"><path fill-rule="evenodd" clip-rule="evenodd" d="M20.1054 2C20.7749 2 21.3145 2.57143 21.2046 3.24311C20.0155 10.1303 20.0155 14.411 21.7541 20.6466C21.964 21.3484 21.4244 22 20.7249 22H3.27882C2.56938 22 2.02981 21.3484 2.24963 20.6466C3.97826 14.411 3.97826 10.1303 2.7892 3.24311C2.68928 2.57143 3.22886 2 3.88833 2H3.97826C7.47548 2.3609 9.74367 2.53133 11.9919 2.53133C14.2401 2.53133 16.4983 2.35088 20.0155 2H20.1054ZM9.13431 6.91993C9.13431 7.42118 8.70465 7.88233 8.15509 7.88233C7.60553 7.88233 7.22583 7.45125 7.22583 6.91993C7.22583 6.3886 7.60553 5.95752 8.15509 5.95752C8.70465 5.95752 9.13431 6.39862 9.13431 6.91993ZM17.0656 6.96241C17.0656 7.46366 16.636 7.92481 16.0864 7.92481C15.5368 7.92481 15.1571 7.49373 15.1571 6.96241C15.1571 6.43108 15.5368 6 16.0864 6C16.636 6 17.0656 6.4411 17.0656 6.96241ZM12.002 14.9799C9.37412 14.9799 7.22583 12.7343 7.22583 9.96741C7.22583 9.56641 7.54557 9.24561 7.93526 9.24561C8.32495 9.24561 8.6447 9.56641 8.6447 9.96741C8.6447 11.9323 10.1535 13.5263 12.002 13.5263C13.8506 13.5263 15.3594 11.9323 15.3594 9.96741C15.3594 9.56641 15.6791 9.24561 16.0688 9.24561C16.4585 9.24561 16.7782 9.56641 16.7782 9.96741C16.7782 12.7343 14.6399 14.9799 12.002 14.9799Z"></path></svg>