
<svg xmlns="http://www.w3.org/2000/svg" version="1.1" width="292px" height="290px" style="shape-rendering:geometricPrecision; text-rendering:geometricPrecision; image-rendering:optimizeQuality; fill-rule:evenodd; clip-rule:evenodd" xmlns:xlink="http://www.w3.org/1999/xlink">
<g><path style="opacity:1" fill="#ee2d2b" d="M 131.5,59.5 C 131.027,58.0937 130.027,57.427 128.5,57.5C 119.582,50.1212 116.749,40.7878 120,29.5C 126.317,15.4848 137.15,9.9848 152.5,13C 170.509,20.5332 175.676,33.3665 168,51.5C 157.883,63.9063 145.716,66.573 131.5,59.5 Z"/></g>
<g><path style="opacity:1" fill="#dc3d97" d="M 125.5,91.5 C 122.375,92.4794 119.042,92.8128 115.5,92.5C 93.4368,92.0794 71.4368,90.746 49.5,88.5C 48.1702,82.5128 46.8369,76.5128 45.5,70.5C 45.5626,66.4717 47.2293,63.3051 50.5,61C 68.1795,55.6217 86.0128,50.7883 104,46.5C 108.98,46.8206 112.647,49.1539 115,53.5C 118.817,66.1038 122.317,78.7705 125.5,91.5 Z"/></g>
<g><path style="opacity:1" fill="#4c78bb" d="M 203.5,58.5 C 203.807,68.5824 203.474,78.5824 202.5,88.5C 180.583,90.9424 158.583,91.9424 136.5,91.5C 136.351,90.448 136.517,89.448 137,88.5C 154.413,76.2101 171.913,64.0434 189.5,52C 194.757,50.5739 199.257,51.7406 203,55.5C 203.483,56.448 203.649,57.448 203.5,58.5 Z"/></g>
<g><path style="opacity:0.565" fill="#fb9793" d="M 128.5,57.5 C 130.027,57.427 131.027,58.0937 131.5,59.5C 129.973,59.573 128.973,58.9063 128.5,57.5 Z"/></g>
<g><path style="opacity:0.502" fill="#95afd6" d="M 203.5,58.5 C 204.166,63.3218 204.499,68.3218 204.5,73.5C 204.494,78.8806 203.828,83.8806 202.5,88.5C 203.474,78.5824 203.807,68.5824 203.5,58.5 Z"/></g>
<g><path style="opacity:0.502" fill="#f2b7d9" d="M 125.5,91.5 C 126.043,91.56 126.376,91.8933 126.5,92.5C 122.685,93.8077 119.019,93.8077 115.5,92.5C 119.042,92.8128 122.375,92.4794 125.5,91.5 Z"/></g>
<g><path style="opacity:1" fill="#1ebaa2" d="M 210.5,95.5 C 219.987,94.2223 225.32,98.2223 226.5,107.5C 220.207,132.433 217.207,157.766 217.5,183.5C 217.46,225.146 222.46,266.146 232.5,306.5C 232.132,309.638 231.299,312.638 230,315.5C 228.829,316.893 227.329,317.727 225.5,318C 158.831,318.397 92.1645,318.063 25.5,317C 21.6981,313.936 20.0314,309.936 20.5,305C 22.4513,295.473 24.618,285.973 27,276.5C 34.1762,235.045 36.1762,193.379 33,151.5C 31.3333,140.833 29.6667,130.167 28,119.5C 27.0804,112.724 27.4137,106.057 29,99.5C 30.722,97.5559 32.8887,96.5559 35.5,96.5C 54.1742,97.8577 72.8409,99.3577 91.5,101C 131.428,101.716 171.094,99.8825 210.5,95.5 Z"/></g>
<g><path style="opacity:1" fill="#f7fcfa" d="M 84.5,142.5 C 91.6027,141.202 95.6027,144.035 96.5,151C 95.602,158.125 91.602,160.792 84.5,159C 77.8696,153.55 77.8696,148.05 84.5,142.5 Z"/></g>
<g><path style="opacity:1" fill="#f9fcfb" d="M 161.5,142.5 C 171.79,142.445 175.123,147.112 171.5,156.5C 165.86,160.975 161.027,160.309 157,154.5C 155.474,149.239 156.974,145.239 161.5,142.5 Z"/></g>
<g><path style="opacity:1" fill="#fafcfc" d="M 80.5,174.5 C 84.1916,173.971 87.3583,174.971 90,177.5C 90.7148,204.549 104.548,218.049 131.5,218C 153.323,212.51 164.323,198.51 164.5,176C 171.26,173.044 174.927,175.211 175.5,182.5C 170.249,216.252 150.582,232.085 116.5,230C 90.6012,222.099 77.7678,204.599 78,177.5C 79.045,176.627 79.8783,175.627 80.5,174.5 Z"/></g>
</svg>
